<?xml version="1.0" encoding="utf-8"?>
<!-- Generator: Adobe Illustrator 19.1.0, SVG Export Plug-In . SVG Version: 6.00 Build 0)  -->
<svg version="1.1" id="Layer_2" xmlns="http://www.w3.org/2000/svg" xmlns:xlink="http://www.w3.org/1999/xlink" x="0px" y="0px"
	 viewBox="0 0 209 209" enable-background="new 0 0 209 209" xml:space="preserve">
<g>
	<path fill="#FFFFFF" d="M209,209H0V0h209V209z M13,196h183V13H13V196z"/>
</g>
<g>
	<path fill="#FFFFFF" d="M189.2,189.2H19.8V19.8h169.4V189.2z M32.8,176.2h143.4V32.8H32.8V176.2z"/>
</g>
<g>
	<g>
		<path fill="#231F20" d="M-386.3,306.5c-3.7,3.5-9.4,10.1-14.9,10.1c-3.8,0-6.9-2.9-7-6.7c-0.2-4.6,3.7-12,14.1-27.8
			c0.3-0.3,1-1.6,1-2.1c0-0.6-0.5-1.1-1.1-1.1c-1.6,0-5.1,3.8-6.2,5c-8.3,8.8-17.3,18.4-24.8,27.7c-1.8,2.1-4,4.5-6.9,4.5
			c-7.7,0-9.9-12.5-9.9-18.2c0.2-15.7,17.1-37.1,26.7-35.8c2.4,0.3,7.2,0.3,7.2,3.7c0,3.2-4.5,8-6.4,10.2c-2.9,3.4-6.4,6.2-8.8,9.8
			c-1.8,2.4-4.6,5-4.6,8.3c0,0.3,0.5,1.4,1.1,1.4c0.8,0,2.7-2.1,3.2-2.6c7.8-8.2,36.3-36.6,46.7-36.6c4.3,0,6.6,3.2,6.6,7.4
			c0,7-11.4,20-14.9,26.2l0.3,0.3l35.5-28c1.6-1.3,5.6-4.5,7.5-4.5c1.3,0,2.9,3.8,3.4,4.5c1.1,1.8,2.9,4.2,2.9,6.4
			c0,2.7-3.2,6.2-5,8.2c-12.5,13.8-13.4,16.3-13.6,20c-0.2,1.9,1.9,4.5,3.8,4c3.4-0.8,5.1-0.8,24.8-14.2l1,7.5
			c-7.5,5.9-30.6,24.8-39.5,24.8c-4.8,0-8.2-4.6-8.2-9.3c0-8,7.8-19.4,11.8-25.9l-0.3-0.3L-386.3,306.5z"/>
	</g>
</g>
<text transform="matrix(1 0 0 1 -345.8965 -18.8097)" font-family="'BrushScriptStd'" font-size="86px">m</text>
<g>
	<path fill="#FFFFFF" d="M143,124.1c-8.7,8.6-16.7,14.8-23.9,18.8c-7.2,4-14.8,6-22.7,6c-8.8,0-16.1-2.9-21.9-8.6
		c-5.7-5.7-8.6-13-8.6-21.9c0-14.5,5.3-27.8,15.8-40.1c10.6-12.3,22-18.4,34.3-18.4c6,0,11,1.7,14.8,5c3.8,3.4,5.7,7.7,5.7,13.1
		c0,1.9-0.4,3.3-1.1,4.3c-0.7,1-2.1,1.9-4,2.9l-11.8,5.6c-1.4,0.7-2.5,1-3.2,1c-1,0-1.4-0.7-1.4-2c0-0.5,0.2-2.3,0.6-5.3
		c0.4-3,0.6-4.9,0.6-5.6c0-3-0.6-5.4-1.9-7.2c-1.3-1.8-2.9-2.8-5-2.8c-5,0-9.5,3.7-13.6,11c-4.1,7.3-6.2,15.7-6.2,25.1
		c0,8.1,1.9,14.5,5.8,19.4c3.9,4.8,9,7.2,15.5,7.2c5.5,0,10.7-1.6,15.5-4.7c4.9-3.2,10.4-8,16.6-14.5V124.1z"/>
</g>
</svg>
